<?xml version="1.0" standalone="no"?>
<!DOCTYPE svg PUBLIC "-//W3C//DTD SVG 1.1//EN" "http://www.w3.org/Graphics/SVG/1.1/DTD/svg11.dtd" >
<svg xmlns="http://www.w3.org/2000/svg">
<metadata>Generated by IcoMoon</metadata>
<defs>
<font id="icomoon" horiz-adv-x="1024">
<font-face units-per-em="1024" ascent="960" descent="-64" />
<missing-glyph horiz-adv-x="1024" />
<glyph unicode="&#x20;" horiz-adv-x="512" d="" />
<glyph unicode="&#xe900;" glyph-name="arrow-right" d="M213.333 405.325h476.587l-208.213-208.213c-16.64-16.64-16.64-43.947 0-60.587s43.52-16.64 60.16 0l281.173 281.173c3.955 3.947 7.095 8.636 9.233 13.798 2.142 5.158 3.243 10.692 3.243 16.282 0 5.585-1.101 11.119-3.243 16.282-2.138 5.163-5.278 9.852-9.233 13.798l-280.747 281.599c-3.951 3.95-8.64 7.084-13.803 9.221-5.158 2.138-10.692 3.238-16.277 3.238s-11.119-1.1-16.277-3.238c-5.163-2.138-9.852-5.271-13.803-9.221s-7.083-8.64-9.22-13.801c-2.138-5.161-3.238-10.693-3.238-16.279s1.101-11.118 3.238-16.279c2.138-5.161 5.269-9.85 9.22-13.801l207.787-208.639h-476.587c-23.467 0-42.667-19.2-42.667-42.667s19.2-42.667 42.667-42.667z" />
<glyph unicode="&#xe901;" glyph-name="bed" d="M853.335 533.317v128c0 46.934-38.4 85.334-85.335 85.334h-511.999c-46.934 0-85.334-38.4-85.334-85.334v-128c-46.933 0-85.333-38.4-85.333-85.332v-213.335h56.746l28.586-85.335h42.667l28.586 85.335h540.589l28.16-85.335h42.665l28.585 85.335h56.75v213.335c0 46.932-38.4 85.332-85.335 85.332zM469.335 533.317h-213.334v128h213.334v-128zM768 533.317h-213.33v128h213.33v-128z" />
<glyph unicode="&#xe902;" glyph-name="book" d="M746.667 761.75c-83.2 0-172.8-17.067-234.667-64-61.867 46.933-151.467 64-234.667 64-61.867 0-127.573-9.387-182.613-33.707-31.147-14.080-52.053-44.373-52.053-78.933v-481.281c0-55.467 52.053-96.427 105.813-82.773 41.813 10.667 86.187 15.36 128.853 15.36 66.56 0 137.387-11.093 194.56-39.253 25.6-12.8 54.613-12.8 79.787 0 57.173 28.587 128 39.253 194.56 39.253 42.667 0 87.040-4.693 128.853-15.36 53.76-14.080 105.813 26.88 105.813 82.773v481.281c0 34.56-20.907 64.853-52.053 78.933-54.613 24.32-120.32 33.707-182.187 33.707zM896 218.603c0-26.88-24.747-46.507-51.2-41.813-32 5.973-65.28 8.533-98.133 8.533-72.533 0-177.067-27.733-234.667-64v491.094c57.6 36.267 162.133 64 234.667 64 39.253 0 78.080-3.84 115.2-11.947 19.627-4.267 34.133-21.76 34.133-41.813v-404.054zM596.48 483.998c-13.653 0-26.027 8.533-30.293 22.187-5.547 16.64 3.84 34.985 20.48 40.105 65.707 21.333 150.613 28.16 228.693 19.2 17.493-2.133 30.293-17.92 28.16-35.412s-17.92-30.293-35.413-28.16c-69.12 8.107-144.64 1.707-201.813-16.64-3.413-0.427-6.827-1.28-9.813-1.28zM596.48 370.505c-13.653 0-26.027 8.533-30.293 22.187-5.547 16.64 3.84 34.987 20.48 40.107 65.28 21.333 150.613 28.16 228.693 19.2 17.493-2.133 30.293-17.92 28.16-35.413s-17.92-30.293-35.413-28.16c-69.12 8.107-144.64 1.707-201.813-16.64-3.209-0.819-6.502-1.25-9.813-1.28zM596.48 257.011c-13.653 0-26.027 8.533-30.293 22.187-5.547 16.64 3.84 34.987 20.48 40.107 65.28 21.333 150.613 28.16 228.693 19.2 17.493-2.133 30.293-17.92 28.16-35.413s-17.92-29.867-35.413-28.16c-69.12 8.107-144.64 1.707-201.813-16.64-3.209-0.819-6.502-1.25-9.813-1.28z" />
<glyph unicode="&#xe903;" glyph-name="car" d="M807.253 703.573c-8.533 25.173-32.427 43.093-60.587 43.093h-106.667v42.667c0 23.467-19.2 42.667-42.667 42.667h-170.667c-23.467 0-42.667-19.2-42.667-42.667v-42.667h-106.667c-28.16 0-51.627-17.92-60.587-43.093l-84.053-241.92c-2.987-8.96-4.693-18.347-4.693-28.16v-305.493c0-35.413 28.587-64 64-64s64 28.587 64 64v21.333h512v-21.333c0-34.987 28.587-64 64-64 34.987 0 64 28.587 64 64v305.493c0 9.387-1.707 19.2-4.693 28.16l-84.053 241.92zM277.333 277.333c-35.413 0-64 28.587-64 64s28.587 64 64 64c35.413 0 64-28.587 64-64s-28.587-64-64-64zM746.667 277.333c-35.413 0-64 28.587-64 64s28.587 64 64 64c35.413 0 64-28.587 64-64s-28.587-64-64-64zM213.333 490.667l64 192h469.333l64-192h-597.333z" />
<glyph unicode="&#xe904;" glyph-name="carret" d="M314.879 63.596c20.907-20.907 54.613-20.907 75.52 0l354.561 354.559c3.954 3.948 7.094 8.636 9.233 13.797 2.145 5.162 3.243 10.695 3.243 16.283s-1.098 11.121-3.243 16.283c-2.139 5.162-5.279 9.85-9.233 13.797l-354.561 354.56c-20.907 20.907-54.613 20.907-75.52 0s-20.907-54.613 0-75.52l308.907-309.333-309.334-309.333c-20.48-20.48-20.48-54.613 0.427-75.093z" />
<glyph unicode="&#xe905;" glyph-name="chat" d="M676.267 612.693c16.64 0 32.853-1.28 48.64-3.413-29.013 126.72-162.133 222.72-322.133 222.72-181.333 0-328.533-122.88-328.533-274.347 0-87.467 49.067-164.693 125.44-215.040l-43.093-86.613 117.76 50.773c25.173-8.96 51.627-16.213 79.787-20.053-3.84 16.64-5.973 33.707-5.973 51.627-0.427 151.040 146.773 274.347 328.106 274.347zM512 708.693c5.38 0 10.705-1.059 15.676-3.118s9.485-5.075 13.286-8.879c3.806-3.803 6.822-8.319 8.879-13.288 2.061-4.97 3.119-10.296 3.119-15.675s-1.058-10.705-3.119-15.675c-2.057-4.969-5.073-9.485-8.879-13.288-3.802-3.804-8.316-6.821-13.286-8.879s-10.295-3.118-15.676-3.118c-10.863 0-21.282 4.315-28.962 11.997-7.684 7.681-11.998 18.1-11.998 28.963s4.314 21.282 11.998 28.963c7.68 7.682 18.099 11.997 28.962 11.997zM293.12 626.347c-10.863 0-21.282 4.315-28.963 11.997s-11.997 18.1-11.997 28.963c0 10.863 4.315 21.282 11.997 28.963s18.1 11.997 28.963 11.997c10.863 0 21.281-4.315 28.963-11.997s11.997-18.1 11.997-28.963c0-10.863-4.316-21.282-11.997-28.963s-18.1-11.997-28.963-11.997zM949.76 338.359c0 121.173-122.453 219.307-273.493 219.307s-273.493-98.134-273.493-219.307c0-121.173 122.453-219.307 273.493-219.307 24.747 0 48.64 3.413 71.253 8.533l147.627-63.573-51.2 102.4c64 40.107 105.813 101.547 105.813 171.947zM593.92 352.013c-8.102 0-16.021 2.402-22.754 6.903-6.737 4.501-11.989 10.897-15.087 18.381-3.102 7.488-3.913 15.723-2.334 23.667 1.583 7.945 5.483 15.245 11.213 20.971 5.726 5.73 13.026 9.63 20.971 11.213 7.945 1.579 16.183 0.768 23.667-2.334 7.484-3.098 13.879-8.35 18.381-15.083 4.501-6.737 6.903-14.656 6.903-22.758 0.427-22.613-18.347-40.96-40.96-40.96zM758.187 352.013c-10.863 0-21.282 4.318-28.962 11.998-7.684 7.68-11.998 18.099-11.998 28.962s4.314 21.282 11.998 28.962c7.68 7.684 18.099 11.998 28.962 11.998s21.282-4.314 28.962-11.998c7.684-7.68 11.998-18.099 11.998-28.962s-4.314-21.282-11.998-28.962c-7.68-7.68-18.099-11.998-28.962-11.998z" />
<glyph unicode="&#xe906;" glyph-name="close" d="M837.269 815.384c-5.090 5.1-11.136 9.146-17.792 11.907s-13.79 4.182-20.996 4.182c-7.206 0-14.34-1.421-20.996-4.182s-12.702-6.807-17.792-11.907l-269.026-268.478-269.028 269.028c-5.094 5.094-11.14 9.134-17.795 11.89s-13.788 4.175-20.991 4.175c-7.203 0-14.336-1.419-20.991-4.175s-12.702-6.797-17.795-11.89c-5.094-5.094-9.134-11.14-11.89-17.795s-4.175-13.788-4.175-20.991c0-7.203 1.419-14.336 4.175-20.991s6.797-12.702 11.89-17.795l269.028-269.028-269.028-269.026c-5.094-5.094-9.134-11.145-11.89-17.796-2.757-6.656-4.175-13.79-4.175-20.992s1.419-14.336 4.175-20.992c2.757-6.656 6.797-12.702 11.89-17.796 5.094-5.090 11.14-9.131 17.795-11.887s13.788-4.177 20.991-4.177c7.203 0 14.336 1.421 20.991 4.177s12.702 6.797 17.795 11.887l269.028 269.030 269.026-269.030c5.094-5.090 11.145-9.131 17.796-11.887 6.656-2.756 13.79-4.177 20.992-4.177s14.336 1.421 20.992 4.177c6.656 2.756 12.702 6.797 17.796 11.887 5.090 5.094 9.131 11.14 11.887 17.796s4.177 13.79 4.177 20.992c0 7.202-1.421 14.336-4.177 20.992-2.756 6.652-6.797 12.702-11.887 17.796l-269.030 269.026 269.030 269.028c20.902 20.906 20.902 56.116 0 77.022z" />
<glyph unicode="&#xe907;" glyph-name="cloud" d="M512 736c16.226 0.003 32.414-1.605 48.32-4.8 50.27-9.628 96.499-34.104 132.723-70.269 36.22-36.164 60.77-82.356 70.477-132.611l8.32-43.2 43.2-7.68c43.635-7.505 82.833-31.177 109.79-66.3s39.684-79.113 35.644-123.204c-4.036-44.087-24.542-85.035-57.429-114.679-32.883-29.641-75.733-45.803-120.004-45.257h-543.040c-44.27-0.546-87.12 15.616-120.006 45.257-32.886 29.645-53.392 70.592-57.429 114.679-4.038 44.092 8.69 88.081 35.645 123.204s66.157 58.795 109.79 66.3l42.88 7.68 8.32 43.2c11.277 58.678 42.725 111.563 88.895 149.493s104.154 58.514 163.905 58.187zM512 800c-74.475 0.062-146.642-25.856-204.061-73.287s-96.497-113.405-110.499-186.553c-58.933-10.671-111.748-42.991-148.070-90.611s-53.526-107.098-48.234-166.758c5.292-59.657 32.699-115.179 76.836-155.661s101.816-63.002 161.708-63.13h544c59.891 0.128 117.572 22.647 161.707 63.13 44.139 40.482 71.543 96.004 76.838 155.661 5.291 59.661-11.913 119.138-48.235 166.758s-89.135 79.94-148.070 90.611c-12.053 62.918-42.714 120.77-88.013 166.068-45.295 45.299-103.151 75.959-166.067 88.012-19.729 3.744-39.761 5.672-59.84 5.76z" />
<glyph unicode="&#xe908;" glyph-name="food" d="M770.56-27.157h70.827c35.84 0 65.28 27.307 69.547 62.293l70.4 703.148h-213.333v172.8h-84.053v-172.8h-212.053l12.8-99.84c72.96-20.053 141.227-56.32 182.187-96.427 61.44-60.588 103.68-123.308 103.68-225.708v-343.467zM42.667 15.509v42.24h641.28v-42.24c0-23.467-19.2-42.667-43.093-42.667h-555.093c-23.893 0-43.093 19.2-43.093 42.667zM683.947 314.176c0 341.334-641.28 341.334-641.28 0h641.28zM43.52 228.416h640v-85.333h-640v85.333z" />
<glyph unicode="&#xe909;" glyph-name="forks" d="M682.665 703.983v-255.998c0-46.935 38.4-85.335 85.335-85.335h42.665v-298.665c0-23.47 19.2-42.67 42.67-42.67 23.465 0 42.665 19.2 42.665 42.67v762.452c0 27.734-26.025 48.214-52.905 41.814-92.16-22.614-160.43-100.694-160.43-164.267zM469.334 575.983h-85.334v256c0 23.467-19.2 42.667-42.666 42.667s-42.667-19.2-42.667-42.667v-256h-85.333v256c0 23.467-19.2 42.667-42.667 42.667s-42.666-19.2-42.666-42.667v-256c0-94.293 76.374-170.669 170.666-170.669v-341.33c0-23.47 19.2-42.67 42.667-42.67s42.666 19.2 42.666 42.67v341.33c94.294 0 170.665 76.376 170.665 170.669v256c0 23.467-19.2 42.667-42.665 42.667-23.466 0-42.666-19.2-42.666-42.667v-256z" />
<glyph unicode="&#xe90a;" glyph-name="globe" d="M511.573 874.667c-235.52 0-426.24-191.147-426.24-426.667s190.72-426.667 426.24-426.667c235.947 0 427.093 191.147 427.093 426.667s-191.147 426.667-427.093 426.667zM807.253 618.667h-125.867c-13.355 52.844-33.126 103.855-58.88 151.893 77.828-26.795 143.411-80.713 184.747-151.893zM512 787.627c35.413-51.2 63.147-107.947 81.493-168.96h-162.987c18.347 61.013 46.080 117.76 81.493 168.96zM181.76 362.667c-6.827 27.307-11.093 55.893-11.093 85.333s4.267 58.027 11.093 85.333h144.213c-3.413-28.16-5.973-56.32-5.973-85.333s2.56-57.173 5.973-85.333h-144.213zM216.747 277.333h125.867c13.653-53.333 33.28-104.533 58.88-151.893-77.911 26.65-143.538 80.606-184.747 151.893zM342.613 618.667h-125.867c41.209 71.288 106.836 125.245 184.747 151.893-25.752-48.038-45.526-99.049-58.88-151.893zM512 108.373c-35.413 51.2-63.147 107.947-81.493 168.96h162.987c-18.347-61.013-46.080-117.76-81.493-168.96zM611.84 362.667h-199.68c-3.84 28.16-6.827 56.32-6.827 85.333s2.987 57.6 6.827 85.333h199.68c3.84-27.733 6.827-56.32 6.827-85.333s-2.987-57.173-6.827-85.333zM622.507 125.44c25.6 47.36 45.227 98.56 58.88 151.893h125.867c-41.335-71.181-106.918-125.099-184.747-151.893zM698.027 362.667c3.413 28.16 5.973 56.32 5.973 85.333s-2.56 57.173-5.973 85.333h144.213c6.827-27.307 11.093-55.893 11.093-85.333s-4.267-58.027-11.093-85.333h-144.213z" />
<glyph unicode="&#xe90b;" glyph-name="key" d="M878.51 533.321h-338.775c-20.634 58.43-61.744 107.402-115.718 137.841s-117.153 40.282-177.829 27.705c-97.706-19.626-177.066-98.133-197.547-195.413-8.29-37.426-8.072-76.237 0.638-113.567s25.689-72.228 49.685-102.124c23.997-29.896 54.398-54.016 88.962-70.595s72.408-25.18 110.742-25.18c52.904-0.005 104.505 16.41 147.684 46.981 43.179 30.566 75.806 73.784 93.383 123.684h14.935l55.040-55.040c16.64-16.64 43.52-16.64 60.16 0l55.465 55.040 55.040-55.040c16.64-16.64 43.945-16.64 60.585 0l110.51 111.36c3.973 3.994 7.122 8.73 9.252 13.947 2.135 5.217 3.21 10.803 3.174 16.435-0.041 5.634-1.198 11.205-3.405 16.389s-5.417 9.88-9.452 13.815l-42.24 41.386c-8.53 8.107-19.2 12.374-30.29 12.374zM298.668 319.99c-70.4 0-128 57.6-128 128 0 70.398 57.6 127.998 128 127.998s128-57.6 128-127.998c0-70.4-57.6-128-128-128z" />
<glyph unicode="&#xe90c;" glyph-name="lang" d="M576 352h192v-64h-192v64zM576 480h384v-64h-384v64zM576 608h384v-64h-384v64zM448 288v64h-160v64h-64v-64h-160v-64h262.88c-11.762-48.026-36.26-91.994-70.912-127.262-18.165 18.944-33.735 40.218-46.304 63.262h-71.008c16.264-39.053 39.526-74.807 68.64-105.506-34.302-24.427-71.737-44.122-111.296-58.56l22.464-59.934c49.231 17.933 95.503 43.127 137.28 74.752 41.962-31.642 88.416-56.836 137.824-74.752l22.432 59.934c-39.542 14.413-76.966 34.078-111.264 58.466 45.17 46.703 75.549 105.702 87.328 169.6h55.936zM357.344 544h69.312l-146.656 352h-69.344l-146.656-352h69.312l26.688 64h170.656l26.688-64zM186.656 672l58.656 140.8 58.688-140.8h-117.344z" />
<glyph unicode="&#xe90d;" glyph-name="list" d="M597.335 490.666c0-23.466-19.2-42.666-42.67-42.666h-383.998c-23.466 0-42.666 19.2-42.666 42.666s19.2 42.667 42.666 42.667h383.998c23.47 0 42.67-19.2 42.67-42.667zM128 661.334c0-23.467 19.2-42.667 42.666-42.667h383.998c23.47 0 42.67 19.2 42.67 42.667s-19.2 42.666-42.67 42.666h-383.998c-23.466 0-42.666-19.2-42.666-42.666zM426.666 320c0 23.465-19.2 42.665-42.666 42.665h-213.334c-23.466 0-42.666-19.2-42.666-42.665s19.2-42.665 42.666-42.665h213.334c23.466 0 42.666 19.2 42.666 42.665zM768.425 410.88l30.295 30.295c3.948 3.953 8.637 7.092 13.798 9.233s10.696 3.243 16.282 3.243c5.586 0 11.121-1.102 16.282-3.243s9.851-5.28 13.798-9.233l30.295-30.295c16.64-16.64 16.64-43.52 0-60.16l-30.295-30.295-90.455 90.455zM738.135 380.585l-220.16-220.16c-3.84-3.84-5.975-8.96-5.975-14.93v-60.16c0-11.95 9.385-21.335 21.335-21.335h60.16c5.545 0 11.090 2.135 14.93 6.4l220.16 220.16-90.45 90.025z" />
<glyph unicode="&#xe90e;" glyph-name="location" d="M512 752.916c-165.12 0-298.667-133.547-298.667-298.667 0-223.999 298.667-554.666 298.667-554.666s298.667 330.667 298.667 554.666c0 165.12-133.547 298.667-298.667 298.667zM512 347.584c-28.288 0-55.42 11.238-75.426 31.241-20.003 20.006-31.241 47.136-31.241 75.425s11.238 55.421 31.241 75.425c20.006 20.004 47.138 31.242 75.426 31.242s55.42-11.238 75.426-31.242c20.002-20.004 31.241-47.135 31.241-75.425s-11.238-55.419-31.241-75.425c-20.006-20.002-47.138-31.241-75.426-31.241z" />
<glyph unicode="&#xe90f;" glyph-name="logo" d="M1024 191.98v512.042c0 141.387-114.668 255.978-256.041 255.978h-512.002c-141.375 0-255.957-114.592-255.957-255.978v-768.022h767.959c141.373 0 255.954 114.591 255.954 255.98h0.087zM170.666 106.68v554.607c0 70.736 57.291 128.032 128.022 128.032h426.621c70.733 0 128.026-57.296 128.026-128.032v-426.658c0-70.738-57.293-128.036-128.026-128.036l-554.643 0.087zM682.665 341.253v213.331c0 35.325-28.687 64.016-64.010 64.016h-213.31c-35.322 0-64.011-28.691-64.011-64.016v-277.346h277.321c35.323 0 64.010 28.692 64.010 64.015z" />
<glyph unicode="&#xe910;" glyph-name="map" d="M625.065 747.529l-213.331 74.666c-17.92 6.4-37.547 6.4-55.467 0.427l-170.24-57.174c-34.56-11.946-58.026-44.374-58.026-81.066v-505.602c0-60.16 60.16-101.12 116.054-79.36l125.013 48.64c9.387 3.84 20.054 3.84 29.44 0.43l213.334-74.67c17.92-6.4 37.545-6.4 55.465-0.425l170.24 57.175c34.56 11.52 58.030 44.37 58.030 81.065v505.6c0 60.16-60.16 101.12-116.055 79.36l-125.015-48.64c-9.385-3.413-19.625-3.84-29.44-0.426zM640 154.035l-256 90.025v497.922l256-90.026v-497.92z" />
<glyph unicode="&#xe911;" glyph-name="phone" d="M820.48 302.665l-108.373 12.373c-12.745 1.498-25.66 0.090-37.777-4.126-12.122-4.211-23.13-11.115-32.196-20.194l-78.507-78.507c-121.122 61.602-219.572 160.051-281.174 281.173l78.934 78.935c18.346 18.347 27.306 43.947 24.32 69.973l-12.373 107.52c-2.419 20.814-12.407 40.011-28.064 53.937s-35.888 21.608-56.842 21.583h-73.813c-48.213 0-88.32-40.107-85.334-88.32 22.613-364.375 314.027-655.362 677.974-677.975 48.213-2.987 88.32 37.12 88.32 85.333v73.813c0.427 43.093-32 79.36-75.093 84.48z" />
<glyph unicode="&#xe912;" glyph-name="scooter" d="M810.667 661.333c0 46.933-38.4 85.333-85.333 85.333h-85.333c-23.467 0-42.667-19.2-42.667-42.667s19.2-42.667 42.667-42.667h85.333v-113.067l-148.48-185.6h-150.187v170.667c0 23.467-19.2 42.667-42.667 42.667h-128c-94.293 0-170.667-76.373-170.667-170.667v-85.333c0-23.467 19.2-42.667 42.667-42.667h42.667c0-70.827 57.173-128 128-128s128 57.173 128 128h150.187c26.027 0 50.347 11.947 66.56 32l148.48 185.6c12.373 15.36 18.773 34.133 18.773 53.333v113.067zM298.667 234.667c-23.467 0-42.667 19.2-42.667 42.667h85.333c0-23.467-19.2-42.667-42.667-42.667zM256 704h128c23.467 0 42.667-19.2 42.667-42.667s-19.2-42.667-42.667-42.667h-128c-23.467 0-42.667 19.2-42.667 42.667s19.2 42.667 42.667 42.667zM810.667 405.333c-70.827 0-128-57.173-128-128s57.173-128 128-128c70.827 0 128 57.173 128 128s-57.173 128-128 128zM810.667 234.667c-23.467 0-42.667 19.2-42.667 42.667s19.2 42.667 42.667 42.667c23.467 0 42.667-19.2 42.667-42.667s-19.2-42.667-42.667-42.667z" />
<glyph unicode="&#xe913;" glyph-name="spa" d="M660.907 543.198c-6.827 103.253-43.947 204.373-112.64 288.427-17.493 21.333-49.493 21.333-66.987 0-68.166-81.672-109.443-182.405-118.187-288.427 54.613-29.014 104.96-66.56 148.907-112.214 43.947 45.227 94.293 82.773 148.907 112.214zM383.573 430.131c-5.973 4.267-12.8 8.107-19.2 12.373 6.4-4.693 13.227-8.107 19.2-12.373zM512 294.878c-83.2 126.72-219.307 214.613-376.747 229.973-27.307 2.56-49.92-20.053-47.36-47.36 19.2-204.8 155.733-374.613 340.48-440.747 26.88-9.813 55.040-17.067 84.053-21.76 29.013 5.12 56.747 12.373 84.053 21.76 184.747 66.133 321.28 235.52 340.48 440.747 0.593 6.366-0.226 12.787-2.398 18.803-2.172 6.012-5.641 11.477-10.163 15.996-4.523 4.523-9.984 7.991-15.996 10.163-6.016 2.172-12.437 2.991-18.803 2.398-158.293-15.36-294.4-103.253-377.6-229.973z" />
<glyph unicode="&#xe914;" glyph-name="swimming" d="M260.693 722.777c50.773-5.973 86.613-24.747 123.307-61.44l42.667-42.667-138.667-138.667c13.227-5.12 23.893-11.52 32.853-16.64 15.787-9.813 25.173-15.36 49.067-15.36s33.28 5.547 49.067 15.36c19.627 11.52 46.080 27.307 93.44 27.307s73.813-15.787 93.013-27.307c15.787-9.387 25.6-15.36 49.067-15.36s33.28 5.547 49.067 15.36c5.12 2.987 11.093 6.4 17.493 9.813l-273.92 273.493c-53.76 53.76-104.107 76.8-178.347 83.2-29.867 2.56-55.467-21.76-55.467-51.627v-3.84c0-26.88 20.907-48.213 47.36-51.627zM910.933 153.179c-7.253 2.56-13.653 6.4-21.333 11.52-19.2 11.52-45.653 27.307-93.013 27.307s-73.813-15.787-93.013-27.307c-15.787-9.813-25.6-15.36-49.067-15.36s-33.28 5.973-49.067 15.36c-19.2 11.52-45.653 27.307-93.013 27.307s-73.813-15.787-93.44-27.307c-15.787-9.813-25.173-15.36-49.067-15.36s-33.28 5.547-49.067 15.36c-19.2 11.52-45.653 27.307-93.013 27.307s-73.813-15.787-93.44-27.307c-7.68-4.693-14.080-8.533-21.333-11.52-16.213-5.547-27.733-19.2-27.733-36.267v-5.12c0-28.587 28.16-48.213 55.467-38.827 15.787 5.547 27.733 12.8 37.973 18.773 15.787 9.387 25.6 14.933 49.067 14.933s33.28-5.547 49.067-15.36c19.2-11.52 45.653-27.307 93.013-27.307s73.813 15.787 93.44 27.307c15.787 9.813 25.173 15.36 49.067 15.36 23.467 0 33.28-5.973 49.067-15.36 19.2-11.52 45.653-27.307 93.013-27.307s73.387 15.787 93.013 27.307c15.787 9.813 25.173 15.36 49.067 15.36 23.467 0 33.28-5.973 49.067-15.36 9.813-5.973 21.76-13.227 37.547-18.773 26.88-9.387 55.467 10.24 55.467 38.827v5.12c0 17.493-11.52 31.147-27.733 36.693zM132.693 262.406c20.053 5.547 34.56 14.080 46.507 20.907 15.787 9.813 25.6 15.36 49.067 15.36s33.28-5.973 49.067-15.36c19.2-11.52 45.653-27.307 93.013-27.307s73.813 15.787 93.013 27.307c15.787 9.813 25.173 15.36 49.067 15.36 23.467 0 33.28-5.973 49.067-15.36 19.2-11.52 45.653-27.307 93.013-27.307s73.813 15.787 93.013 27.307c15.787 9.813 25.173 15.36 49.067 15.36 23.467 0 33.28-5.973 49.067-15.36 9.813-5.973 21.333-12.8 36.267-18.347 6.269-2.264 12.988-2.992 19.593-2.128s12.908 3.305 18.381 7.105c5.473 3.8 9.956 8.858 13.073 14.746s4.779 12.436 4.847 19.103v5.12c0 17.067-11.52 30.72-27.307 36.693-7.253 2.56-13.653 6.4-21.76 11.093-19.2 11.52-45.653 27.307-93.013 27.307s-73.813-15.787-93.013-27.307c-15.787-9.813-25.6-15.36-49.067-15.36s-33.28 5.973-49.067 15.36c-19.2 11.52-45.653 27.307-93.013 27.307s-73.813-15.787-93.013-27.307c-15.787-9.813-25.173-15.36-49.067-15.36-23.467 0-33.28 5.973-49.067 15.36-19.2 11.52-45.653 27.307-93.013 27.307s-73.813-15.787-93.013-27.307c-7.68-4.693-14.080-8.533-21.333-11.52-16.213-5.547-27.733-19.2-27.733-36.267v-9.813c0-24.747 23.467-43.52 47.36-36.693zM704 618.667c58.908 0 106.667 47.757 106.667 106.667s-47.758 106.667-106.667 106.667c-58.908 0-106.667-47.757-106.667-106.667s47.758-106.667 106.667-106.667z" />
<glyph unicode="&#xe915;" glyph-name="carret-left" d="M709.12 832.419c-20.907 20.907-54.613 20.907-75.52 0l-354.56-354.56c-3.955-3.947-7.093-8.636-9.234-13.798-2.141-5.158-3.243-10.692-3.243-16.282s1.102-11.119 3.243-16.282c2.141-5.163 5.279-9.852 9.234-13.798l354.56-354.56c20.907-20.907 54.613-20.907 75.52 0s20.907 54.613 0 75.52l-308.906 309.333 309.333 309.334c20.48 20.48 20.48 54.613-0.427 75.093z" />
<glyph unicode="&#xe916;" glyph-name="person" d="M511.996 448.017c94.294 0 170.669 76.373 170.669 170.666s-76.375 170.666-170.669 170.666c-94.294 0-170.666-76.373-170.666-170.666s76.373-170.666 170.666-170.666zM511.996 362.685c-113.92 0-341.334-57.175-341.334-170.67v-42.665c0-23.465 19.2-42.665 42.667-42.665h597.336c23.465 0 42.665 19.2 42.665 42.665v42.665c0 113.495-227.415 170.67-341.334 170.67z" />
</font>
</defs>
</svg>
